<svg fill="none" height="24" viewBox="0 0 24 24" width="24" xmlns="http://www.w3.org/2000/svg"><g fill="#292d32"><path d="m12 22.75c-5.93 0-10.75-4.82-10.75-10.75s4.82-10.75 10.75-10.75 10.75 4.82 10.75 10.75-4.82 10.75-10.75 10.75zm0-20c-5.1 0-9.25 4.15-9.25 9.25s4.15 9.25 9.25 9.25 9.25-4.15 9.25-9.25-4.15-9.25-9.25-9.25z"/><path d="m12.2402 16.75c-2.61997 0-4.74997-2.13-4.74997-4.75s2.13-4.75 4.74997-4.75c1.15 0 2.27.42 3.13 1.19.31.27.34.75.07 1.06s-.75.34001-1.06.07001c-.59-.52-1.35-.81-2.14-.81-1.79 0-3.24997 1.45999-3.24997 3.24999s1.45997 3.25 3.24997 3.25c.78 0 1.55-.29 2.14-.81.31-.27.79-.24 1.06.07s.24.79-.07 1.06c-.87.75-1.98 1.17-3.13 1.17z"/></g></svg>